# xmcd
# 
# Track frame offsets:
#     150
#     14861
#     34233
#     48001
#     67642
#     81002
#     97447
#     121337
#     145705
#     164345
#     191471
#     215639
#     230887
#     246859
#     258621
#     277962
#     294671
#     311752
# 
# Disc length: 4531
# 
# Revision: 3
# Processed by: cddbd v1.5.2PL0 Copyright (c) Steve Scherf et al.
# Submitted via: fre:ac v1.0.17
# 
DISCID=1011b112
DTITLE=Free - Chronicles Disc 2
DYEAR=2005
DGENRE=rock
TTITLE0=The Stealer
TTITLE1=The Highway Song
TTITLE2=Soon I Will Be Gone
TTITLE3=Ride On A Pony
TTITLE4=My Brother Jake
TTITLE5=Trouble On Double Time (Live)
TTITLE6=Mr Big (Live)
TTITLE7=The Hunter (Live)
TTITLE8=Fire And Water (Live)
TTITLE9=Crossroads (Live)
TTITLE10=Magic Ship
TTITLE11=Travellin' Man
TTITLE12=Catch A Train
TTITLE13=Little Bit Of Love
TTITLE14=Muddy Water
TTITLE15=Wishing Well
TTITLE16=Easy On My Soul
TTITLE17=Heartbreaker
EXTD=
EXTT0=
EXTT1=
EXTT2=
EXTT3=
EXTT4=
EXTT5=
EXTT6=
EXTT7=
EXTT8=
EXTT9=
EXTT10=
EXTT11=
EXTT12=
EXTT13=
EXTT14=
EXTT15=
EXTT16=
EXTT17=
PLAYORDER=
